<svg xmlns="http://www.w3.org/2000/svg" width="1200" height="180" viewBox="0 0 1200 180" role="img" aria-labelledby="title desc">
<title id="title">01-boris-research-plan-implement.svg</title>
<desc id="desc">Source Mermaid from How I Use Claude Code: flowchart TD A[Research] --&gt; B[Plan] --&gt; C[Annotate] --&gt; D[Todo List] --&gt; E[Implement] --&gt; F[Feedback].</desc>
<style>
  .bg { fill: #f8fafc; }
  .box { fill: #ffffff; stroke: #334155; stroke-width: 2; rx: 14; }
  .box-green { fill: #dcfce7; stroke: #22c55e; stroke-width: 2; rx: 14; }
  .box-red { fill: #fee2e2; stroke: #ef4444; stroke-width: 2; rx: 14; }
  .box-purple { fill: #ede9fe; stroke: #8b5cf6; stroke-width: 2; rx: 14; }
  .diamond { fill: #ffffff; stroke: #334155; stroke-width: 2; }
  .label { font-family: Inter, ui-sans-serif, system-ui, -apple-system, BlinkMacSystemFont, 'Segoe UI', sans-serif; font-size: 18px; fill: #0f172a; font-weight: 650; }
  .small { font-size: 15px; fill: #475569; font-weight: 600; }
  .edge { stroke: #334155; stroke-width: 2.2; fill: none; marker-end: url(#arrow); }
  .edge-red { stroke: #ef4444; stroke-width: 2.2; fill: none; marker-end: url(#arrow-red); }
  .edge-green { stroke: #16a34a; stroke-width: 2.2; fill: none; marker-end: url(#arrow-green); }
</style>
<defs>
  <marker id="arrow" markerWidth="10" markerHeight="10" refX="9" refY="3" orient="auto" markerUnits="strokeWidth"><path d="M0,0 L0,6 L9,3 z" fill="#334155" /></marker>
  <marker id="arrow-red" markerWidth="10" markerHeight="10" refX="9" refY="3" orient="auto" markerUnits="strokeWidth"><path d="M0,0 L0,6 L9,3 z" fill="#ef4444" /></marker>
  <marker id="arrow-green" markerWidth="10" markerHeight="10" refX="9" refY="3" orient="auto" markerUnits="strokeWidth"><path d="M0,0 L0,6 L9,3 z" fill="#16a34a" /></marker>
</defs>
<rect class="bg" x="0" y="0" width="1200" height="180" />
<rect class="box" x="55.0" y="55.0" width="145" height="70" rx="14" />
<text class="label" x="127.5" y="90.0" text-anchor="middle" dominant-baseline="middle">Research</text>
<path class="edge" d="M200.0,90.0 L244.0,90.0" />
<rect class="box" x="244.0" y="55.0" width="145" height="70" rx="14" />
<text class="label" x="316.5" y="90.0" text-anchor="middle" dominant-baseline="middle">Plan</text>
<path class="edge" d="M389.0,90.0 L433.0,90.0" />
<rect class="box" x="433.0" y="55.0" width="145" height="70" rx="14" />
<text class="label" x="505.5" y="90.0" text-anchor="middle" dominant-baseline="middle">Annotate</text>
<path class="edge" d="M578.0,90.0 L622.0,90.0" />
<rect class="box" x="622.0" y="55.0" width="145" height="70" rx="14" />
<text class="label" x="694.5" y="90.0" text-anchor="middle" dominant-baseline="middle">Todo List</text>
<path class="edge" d="M767.0,90.0 L811.0,90.0" />
<rect class="box" x="811.0" y="55.0" width="145" height="70" rx="14" />
<text class="label" x="883.5" y="90.0" text-anchor="middle" dominant-baseline="middle">Implement</text>
<path class="edge" d="M956.0,90.0 L1000.0,90.0" />
<rect class="box" x="1000.0" y="55.0" width="145" height="70" rx="14" />
<text class="label" x="1072.5" y="90.0" text-anchor="middle" dominant-baseline="middle">Feedback</text>

</svg>